<?xml version="1.0" standalone="no"?>
<!DOCTYPE svg PUBLIC "-//W3C//DTD SVG 20010904//EN"
 "http://www.w3.org/TR/2001/REC-SVG-20010904/DTD/svg10.dtd">
<svg
  xmlns="http://www.w3.org/2000/svg"
  viewBox="0 0 298.000000 289.000000"
  className="h-8 w-8 text-gray-600 fill-current"
  preserveAspectRatio="xMidYMid meet"
>
  <g
    transform="translate(0.000000,289.000000) scale(0.100000,-0.100000)"
    fill="currentColor"
    stroke="none"
  >
<path d="M1464 2882 c-6 -4 -14 -17 -18 -28 -4 -12 -22 -38 -41 -57 -20 -20
-38 -50 -41 -67 -4 -16 -13 -30 -20 -30 -11 0 -10 -9 6 -39 14 -29 16 -41 7
-44 -9 -4 -9 -7 1 -18 7 -8 12 -41 12 -82 0 -59 -3 -70 -18 -74 -14 -3 -18
-11 -14 -29 4 -20 0 -24 -20 -24 -14 0 -33 -9 -43 -20 -18 -20 -18 -21 3 -41
29 -26 17 -48 -45 -84 -218 -126 -349 -328 -372 -570 -6 -67 -7 -70 -33 -73
-20 -2 -28 -9 -28 -22 0 -10 4 -21 9 -24 13 -8 21 -73 27 -203 l6 -113 -136 0
-137 0 12 -22 c8 -15 9 -23 1 -26 -15 -5 16 -92 34 -92 8 0 14 -10 14 -25 0
-18 5 -25 20 -25 17 0 19 -3 11 -19 -7 -13 -7 -28 -1 -48 6 -16 9 -111 8 -222
l-3 -193 -325 -129 -325 -128 76 -1 c75 0 76 0 733 259 l657 260 657 -260 657
-259 72 2 72 3 -318 125 -318 125 -5 200 c-3 110 -1 210 3 223 6 14 5 31 -1
43 -9 16 -7 19 10 19 14 0 20 7 20 24 0 15 7 26 18 28 22 6 47 85 29 91 -6 2
-6 10 2 25 l12 22 -136 0 -135 0 0 103 c1 69 5 110 15 127 8 14 14 39 15 57 0
17 5 35 10 38 22 13 9 34 -22 37 l-33 3 -7 79 c-9 95 -30 170 -70 250 -63 124
-173 239 -295 308 -68 38 -81 60 -52 86 18 17 19 23 7 41 -8 13 -23 21 -41 21
-26 0 -28 3 -23 25 5 19 2 25 -9 25 -14 0 -16 15 -14 103 1 63 7 112 16 130
11 23 11 27 0 27 -8 0 -17 14 -21 30 -3 17 -19 45 -36 63 -17 17 -39 47 -50
65 -20 33 -27 37 -46 24z m-8 -148 c-3 -9 -6 -27 -6 -40 0 -17 -6 -24 -20 -24
-24 0 -26 26 -4 58 17 25 39 30 30 6z m78 -9 c22 -33 20 -55 -4 -55 -12 0 -20
7 -20 18 0 9 -3 27 -6 40 -8 29 10 28 30 -3z m-86 -197 c-2 -66 -6 -83 -18
-83 -12 0 -16 17 -18 83 -3 77 -2 82 18 82 20 0 21 -5 18 -82z m102 3 c0 -47
-5 -83 -11 -87 -20 -12 -26 11 -21 89 3 57 8 77 18 77 11 0 14 -18 14 -79z
m28 -173 c-3 -22 -7 -23 -98 -23 -91 0 -95 1 -98 23 -3 22 -1 22 98 22 99 0
101 0 98 -22z m52 -67 c5 -11 10 -22 10 -25 0 -3 -72 -6 -160 -6 -88 0 -160 2
-160 5 0 3 6 14 12 25 12 18 24 20 150 20 126 0 138 -2 148 -19z m-330 -128
c-36 -21 -101 -74 -146 -118 -103 -102 -154 -198 -162 -305 l-5 -70 81 0 81 0
6 48 c20 168 86 328 176 427 46 50 79 69 79 46 0 -5 -18 -31 -40 -57 -85 -102
-142 -236 -160 -376 -5 -45 -10 -84 -10 -85 0 -7 140 -2 140 5 0 4 5 60 10
124 17 204 66 398 101 398 24 0 24 -12 -1 -102 -26 -97 -50 -269 -50 -357 l0
-71 86 0 86 0 -7 78 c-12 142 -26 236 -51 337 -29 120 -29 115 -4 115 37 0 89
-216 106 -437 l7 -93 69 0 70 0 -7 66 c-15 146 -65 271 -155 387 -27 37 -50
69 -50 72 0 20 36 -4 84 -56 90 -97 154 -249 172 -406 l7 -63 84 0 85 0 -7 53
c-8 69 -21 109 -58 182 -37 76 -169 209 -252 256 -56 32 -58 34 -32 37 75 9
268 -160 330 -288 43 -88 67 -175 67 -242 l0 -48 -550 0 -550 0 0 38 c1 103
51 242 126 343 68 94 213 198 274 199 34 0 34 -1 -30 -37z m790 -623 c0 -20
-7 -20 -605 -20 -598 0 -605 0 -605 20 0 20 7 20 605 20 598 0 605 0 605 -20z
m-1125 -112 c3 -18 5 -67 3 -108 -2 -62 -6 -75 -20 -78 -16 -3 -18 7 -18 101
0 57 3 107 7 110 13 14 22 6 28 -25z m159 16 c3 -9 6 -58 6 -110 l0 -94 -30 0
-30 0 0 103 c0 57 3 107 7 110 12 13 41 7 47 -9z m184 4 c8 -8 12 -47 12 -111
l0 -98 -42 3 -43 3 -3 94 c-2 60 1 98 9 107 14 17 51 18 67 2z m212 -8 c6 -11
10 -58 8 -108 l-3 -87 -45 0 -45 0 -3 81 c-4 103 7 134 47 134 20 0 34 -7 41
-20z m198 8 c8 -8 12 -47 12 -110 l0 -98 -45 0 -45 0 0 98 c0 103 7 122 45
122 12 0 26 -5 33 -12z m172 -8 c6 -11 10 -58 8 -108 l-3 -87 -30 0 -30 0 -3
85 c-2 47 0 95 3 108 7 28 40 29 55 2z m145 -12 c3 -18 5 -67 3 -108 -2 -62
-6 -75 -20 -78 -16 -3 -18 7 -18 101 0 57 3 107 7 110 13 14 22 6 28 -25z
m245 -273 l0 -25 -797 2 -798 3 -3 23 -3 22 800 0 801 0 0 -25z m-1421 -309
l2 -204 -47 -16 c-26 -9 -52 -16 -57 -16 -5 0 -7 93 -6 220 l3 220 51 0 51 0
3 -204z m189 177 c4 -99 0 -299 -6 -304 -4 -3 -25 -13 -48 -22 l-41 -16 -6
141 c-3 78 -1 152 4 165 6 16 5 31 -1 44 -10 18 -7 19 43 19 52 0 54 -1 55
-27z m192 0 c0 -16 3 -72 6 -125 l6 -98 -47 -20 c-26 -11 -51 -20 -56 -20 -6
0 -9 56 -8 145 l3 145 47 0 c46 0 48 -1 49 -27z m198 -63 c2 -50 1 -90 -2 -90
-3 0 -28 -9 -56 -20 l-51 -20 3 110 3 110 50 0 50 0 3 -90z m191 -20 l2 -110
-43 16 c-68 27 -68 28 -66 120 l3 84 50 0 51 0 3 -110z m191 78 c6 -68 4 -247
-1 -252 -3 -4 -27 2 -53 11 l-47 18 2 116 c1 64 -1 121 -5 127 -5 9 9 12 47
12 55 0 55 0 57 -32z m190 13 c-7 -13 -7 -28 0 -46 5 -14 10 -89 10 -166 0
-158 7 -148 -77 -112 l-34 14 2 164 3 165 53 0 c50 0 53 -1 43 -19z m199 -201
c3 -245 6 -233 -67 -200 l-44 20 4 200 3 200 51 0 50 0 3 -220z"/>
<path d="M942 526 l-533 -211 70 -3 c70 -3 71 -3 536 181 l466 184 466 -184
c466 -184 466 -184 536 -181 l71 3 -530 209 c-291 114 -533 209 -539 211 -5 2
-250 -92 -543 -209z"/>
</g>
</svg>
